<svg id="visual" viewBox="0 0 900 150" width="900" height="150" xmlns="http://www.w3.org/2000/svg" xmlns:xlink="http://www.w3.org/1999/xlink" version="1.1"><rect x="0" y="0" width="900" height="150" fill="#ffffff"></rect><path d="M0 137L10.7 129.8C21.3 122.7 42.7 108.3 64.2 89.2C85.7 70 107.3 46 128.8 46C150.3 46 171.7 70 193 83.7C214.3 97.3 235.7 100.7 257 96.2C278.3 91.7 299.7 79.3 321.2 85C342.7 90.7 364.3 114.3 385.8 113.5C407.3 112.7 428.7 87.3 450 88.3C471.3 89.3 492.7 116.7 514.2 113C535.7 109.3 557.3 74.7 578.8 50.8C600.3 27 621.7 14 643 18.8C664.3 23.7 685.7 46.3 707 59.8C728.3 73.3 749.7 77.7 771.2 68.7C792.7 59.7 814.3 37.3 835.8 25.3C857.3 13.3 878.7 11.7 889.3 10.8L900 10L900 0L889.3 0C878.7 0 857.3 0 835.8 0C814.3 0 792.7 0 771.2 0C749.7 0 728.3 0 707 0C685.7 0 664.3 0 643 0C621.7 0 600.3 0 578.8 0C557.3 0 535.7 0 514.2 0C492.7 0 471.3 0 450 0C428.7 0 407.3 0 385.8 0C364.3 0 342.7 0 321.2 0C299.7 0 278.3 0 257 0C235.7 0 214.3 0 193 0C171.7 0 150.3 0 128.8 0C107.3 0 85.7 0 64.2 0C42.7 0 21.3 0 10.7 0L0 0Z" fill="#121212" stroke-linecap="round" stroke-linejoin="miter"></path></svg>