<svg id="visual" viewBox="0 0 900 200" width="900" height="200" xmlns="http://www.w3.org/2000/svg" xmlns:xlink="http://www.w3.org/1999/xlink" version="1.1"><rect x="0" y="0" width="900" height="200" fill="#121212"></rect><path d="M0 45L16.7 64.2C33.3 83.3 66.7 121.7 100 133.8C133.3 146 166.7 132 200 114.3C233.3 96.7 266.7 75.3 300 77.7C333.3 80 366.7 106 400 122C433.3 138 466.7 144 500 144.5C533.3 145 566.7 140 600 131.7C633.3 123.3 666.7 111.7 700 108.3C733.3 105 766.7 110 800 99C833.3 88 866.7 61 883.3 47.5L900 34" fill="none" stroke-linecap="round" stroke-linejoin="miter" stroke="#ffffff" stroke-width="40"></path></svg>